<!-- "Icon made by Freepik from www.flaticon.com" -->
<svg xmlns="http://www.w3.org/2000/svg"
     width="512"
     height="512"
     viewbox="0 0 512 512">
    <path
            fill="#fff"
            d="m124.333,348.547c0,-74.126 27.736,-108.869 94.084,-163.365l25.787,-21.265c-1.41,-31.526 -14.332,-61.086 -36.524,-83.413 -22.684,-22.822 -52.547,-35.593 -84.084,-35.961 -0.456,-0.005 -0.907,-0.007 -1.363,-0.007 -31.389,0 -61.214,12.148 -83.98,34.208 -24.668,23.9 -38.253,56.216 -38.253,90.994 0,20.378 4.894,40.617 14.152,58.527 0.894,1.73 2.679,2.825 4.656,2.856l0.13,0.002c1.914,0 3.684,-1.037 4.618,-2.704 8.009,-14.296 22.324,-22.833 38.294,-22.833 1.269,0 2.556,0.057 3.82,0.167 20.524,1.78 37.342,18.378 39.994,39.51l0.052,0.429c0.884,7.624 -0.934,15.5 -5.12,22.174 -15.309,24.419 -23.426,52.726 -23.476,81.859 -0.065,38.465 19.143,77.503 52.7,107.103 18.089,15.956 38.923,28.149 60.64,35.843 -42.049,-35.817 -66.127,-88.194 -66.127,-144.124z"/>
    <path
            fill="#fff"
            d="m426.082,433.532c-11.697,33.086 -34.629,60.751 -64.087,78.196h65.967c23.27,0 41.852,-20.053 38.715,-43.461 -2.659,-19.83 -20.253,-34.428 -40.595,-34.735z"/>
    <path
            fill="#fff"
            d="m505.461,286.141c-3.817,-3.719 -8.789,-5.767 -13.971,-5.767l-1.034,0.003c-34.72,0 -61.352,-13.15 -77.017,-38.03 -0.938,-1.49 -1.843,-3.034 -2.689,-4.587l-22.944,-42.08 46.894,12.765c9.291,2.53 18.407,3.813 27.097,3.813 8.123,0 15.619,-1.124 22.283,-3.342 11.35,-3.776 19.515,-10.652 23.611,-19.885 6.89,-15.529 1.283,-31.574 -4.634,-42.3 -8.689,-15.752 -24.129,-32.303 -45.883,-49.188 -7.48,-5.794 -16.189,-9.322 -25.887,-10.487l-12.74,-1.53 -4.337,-11.842c-3.461,-9.451 -9.403,-18.669 -17.185,-26.658 -11.649,-11.963 -30.246,-14.474 -43.796,-14.474 -6.563,0 -12.122,0.603 -15.485,1.078 -0.552,4.321 -1.326,12.406 -0.902,21.492 0.738,15.839 4.524,28.244 11.251,36.873l12.079,15.491 -122.106,100.693c-62.378,51.234 -83.135,78.703 -83.135,140.368 0,47.916 20.838,92.684 57.166,122.819l0.379,0.314 0.354,0.323c21.034,19.168 48.101,29.725 76.216,29.725 63.413,0 115.004,-53.076 115.004,-118.316 0,-11.924 -1.748,-23.763 -5.195,-35.188l-4.263,-14.13c-5.435,-5.599 -11.49,-10.576 -18.083,-14.807 -16.288,-10.454 -35.081,-15.846 -54.35,-15.608 -8.759,0.118 -16.044,-6.802 -16.158,-15.44s6.936,-15.731 15.747,-15.843c25.629,-0.314 50.62,6.84 72.239,20.716 12.565,8.065 23.63,18.171 32.832,29.846 12.188,1.728 24.116,2.607 35.519,2.607 11.427,0 22.288,-0.867 32.28,-2.578 10.071,-1.725 17.382,-10.631 17.382,-21.174 0,-5.912 -2.384,-11.624 -6.539,-15.672zM439.01,141.634c5.16,-4.148 12.58,-4.667 18.306,-1.324 5.731,3.346 8.742,10.075 7.444,16.477 -1.464,7.222 -8.127,12.577 -15.635,12.577 -6.687,0 -12.744,-4.221 -15.017,-10.369 -2.271,-6.143 -0.24,-13.227 4.902,-17.361z"/>
</svg>